# xmcd
#
# Track frame offsets:
#	150
#	10711
#	28430
#	38587
#	57236
#	69027
#	82573
#	95701
#	106085
#	117054
#	127361
#	144704
#	155627
#	176163
#	189876
#	203349
#	216745
#	228236
#
# Disc length: 3182 seconds
#
# Revision: 1
# Processed by: cddbd v1.5.2PL0 Copyright (c) Steve Scherf et al.
# Submitted via: EZCDAudioConverter 3.1.0.1
#
DISCID=f00c6c12
DTITLE=Willies - Right Time
DYEAR=2011
DGENRE=Acoustic
TTITLE0=01 Duel and úvodní slovo
TTITLE1=02 Wabash Cannonball
TTITLE2=03 Znám kout
TTITLE3=04 Reuben James
TTITLE4=05 Oranžový expres
TTITLE5=06 Šéfe
TTITLE6=07 Duní vodopád
TTITLE7=08 Padá déšť
TTITLE8=09 Ta zem je tvá zem
TTITLE9=10 Banjo z mlžných hor
TTITLE10=11 Tom Dolley
TTITLE11=12 Já v poslední době
TTITLE12=13 Ohio
TTITLE13=14 Drnová chajda
TTITLE14=15 Duhové znamení
TTITLE15=16 Rychlejší koně
TTITLE16=17 Hučka
TTITLE17=18 Duel
EXTD=
EXTT0=
EXTT1=
EXTT2=
EXTT3=
EXTT4=
EXTT5=
EXTT6=
EXTT7=
EXTT8=
EXTT9=
EXTT10=
EXTT11=
EXTT12=
EXTT13=
EXTT14=
EXTT15=
EXTT16=
EXTT17=
PLAYORDER=
